<svg width="64" height="64" viewBox="0 0 64 64" fill="none" xmlns="http://www.w3.org/2000/svg">
<path d="M46.6483 43.9541C44.4399 45.6995 41.4008 46.3541 37.3461 46.3541C34.8443 46.3541 33.379 46.0264 31.076 44.951C30.6485 44.7519 29.5593 44.1434 28.6776 42.7979C28.5908 42.6658 28.4733 42.4852 28.3984 42.3105C28.1515 41.7304 28.0482 41.1259 28.0987 40.5616C28.1822 39.6258 28.4904 39.0547 29.2825 38.3099C29.3756 38.2222 29.6166 38.0406 29.9053 37.8278C30.2914 37.5432 30.6961 37.2818 31.1213 37.0597C32.7003 36.2344 34.3741 35.6394 36.4203 35.5347C40.7118 35.3153 42.0553 35.7952 44.1739 36.736C45.665 37.3982 47.5148 38.9992 47.5313 39.0158L48.1039 39.5912L55.6107 32.0492L54.4876 30.5172C54.1896 30.1173 53.9261 29.786 53.6792 29.5064C53.3692 29.1424 53.0073 28.7635 52.5695 28.3451C51.1483 27.0027 49.4794 25.9253 47.6639 25.169L54.3307 22.4105L47.4848 11.3151L38.6672 15.7271L41.4015 7.94581L27.9252 5L23.4351 17.1909L22.1141 10.0248L8.30005 12.954L9.10533 36.7691C9.22284 41.7572 11.1418 46.612 14.5237 50.4573L15.2083 51.1903C16.0191 52.0173 16.9214 52.8075 17.8922 53.5399L18.0752 53.6771C20.0935 55.0924 22.2679 56.2435 24.537 57.0984C27.3787 58.1702 30.36 58.7933 33.3901 58.9499C33.9312 58.9834 34.473 59 35.014 59C37.5931 59 40.1516 58.6703 42.6171 58.0204C46.4359 57.016 50.0766 55.2059 53.1407 52.789L54.6921 51.5598L47.9829 42.8992L46.6483 43.9541ZM37.3351 31.008C37.119 31.0116 36.8832 31.0214 36.6537 31.034V31.0328L36.5077 31.0423C36.4218 31.0478 36.3374 31.0533 36.2562 31.0592L35.5195 31.1089C32.621 31.413 29.9253 32.3097 27.5229 33.7632C27.3439 33.8654 26.7279 34.253 26.4779 34.449C26.3762 34.5251 26.2776 34.6016 26.183 34.6919C23.9754 36.498 22.8697 39.354 23.3018 42.1834L23.3334 42.3463C23.5504 43.54 24.0227 44.6386 24.7271 45.5985C25.2208 46.2985 25.8375 46.9255 26.5663 47.4653C26.8392 47.6645 27.1247 47.8514 27.3455 47.9768C27.8731 48.3025 28.2974 48.5375 28.6516 48.702C31.1572 49.9926 33.9445 50.5941 37.425 50.5941C40.5041 50.5941 43.7362 49.6097 47.0447 47.6668L48.3209 50.5535C46.3034 52.1123 43.1699 53.3801 42.5925 53.5497C38.9685 54.6145 36.9668 54.5553 35.2016 54.5037C33.1037 54.4414 30.6587 53.969 27.7059 53.0537C27.2839 52.935 26.8321 52.7844 26.2469 52.5674C24.3579 51.8524 22.5541 50.8973 20.9192 49.7558L20.7938 49.6571C19.9562 49.025 19.1817 48.3393 18.4781 47.6058L18.4143 47.5431C15.6364 44.5185 14.0512 40.6554 13.9503 36.6591L13.3012 16.7851L17.8421 14.9436L21.282 26.1674L24.817 25.2158L30.964 10.5453L35.5061 11.0276L31.4514 23.6432L45.8925 16.9255L47.5787 20.5452L39.1965 24.1183L37.9905 27.3765L39.0813 27.4387C41.124 27.5554 43.0926 27.9175 44.4823 28.4321C45.9682 28.9823 47.8863 30.2398 49.3777 31.6441C49.4188 31.6824 49.5275 31.7905 49.6467 31.9107L47.9691 35.4883C47.7957 35.3254 47.6276 35.1712 47.4801 35.0391C44.5982 32.4667 41.0175 30.9915 37.6554 30.9915C37.5481 30.9915 37.4116 31.0005 37.3351 31.008Z" fill="black"/>
</svg>
